<?xml version="1.0" encoding="iso-8859-1"?>
<!-- Generator: Adobe Illustrator 19.0.0, SVG Export Plug-In . SVG Version: 6.00 Build 0)  -->
<svg version="1.1" id="Capa_1" xmlns="http://www.w3.org/2000/svg" xmlns:xlink="http://www.w3.org/1999/xlink" x="0px" y="0px"
	 viewBox="0 0 503.873 503.873" style="enable-background:new 0 0 503.873 503.873;" xml:space="preserve">
<g>
	<g>
		<path d="M75.581,131.454v208.864h353.524V131.454H75.581z M412.038,323.251H91.022V146.895h321.016V323.251z"/>
	</g>
</g>
<g>
	<g>
		<path d="M460.8,362.26V98.946H43.073v264.127L0,501.232h503.873v-0.813L460.8,362.26z M59.327,115.2h385.219v241.371H59.327V115.2
			z M21.943,484.978l34.946-112.152h390.095l34.946,112.152H21.943z"/>
	</g>
</g>
<g>
	<g>
		<path d="M298.26,420.775h-92.648l-12.19,47.949h117.029L298.26,420.775z M213.74,452.47l4.064-16.254h67.454l4.064,16.254H213.74z
			"/>
	</g>
</g>
<g>
	<g>
		<path d="M186.921,249.295c5.689-5.689,8.94-13.816,8.94-21.943c0-17.879-14.629-32.508-32.508-32.508
			s-32.508,14.629-32.508,32.508c0,8.94,3.251,16.254,8.94,21.943c-14.629,8.127-25.194,24.381-25.194,42.26h16.254
			c0-17.879,14.629-32.508,32.508-32.508s32.508,14.629,32.508,32.508h16.254C212.114,273.676,201.549,258.235,186.921,249.295z
			 M163.352,243.606c-8.94,0-16.254-7.314-16.254-16.254s7.314-16.254,16.254-16.254s16.254,7.314,16.254,16.254
			S172.292,243.606,163.352,243.606z"/>
	</g>
</g>
<g>
	<g>
		<rect x="276.317" y="211.911" width="96.711" height="16.254"/>
	</g>
</g>
<g>
	<g>
		<rect x="260.064" y="243.606" width="128.406" height="16.254"/>
	</g>
</g>
<g>
	<g>
		<rect x="316.14" y="276.114" width="16.254" height="16.254"/>
	</g>
</g>
<g>
	<g>
		<rect x="284.444" y="276.114" width="16.254" height="16.254"/>
	</g>
</g>
<g>
	<g>
		<rect x="348.648" y="276.114" width="16.254" height="16.254"/>
	</g>
</g>
<g>
	<g>
		<path d="M183.67,30.679l11.378,11.378c31.695-30.883,82.083-30.883,113.778,0l11.378-11.378
			C282.819-6.705,221.867-6.705,183.67,30.679z"/>
	</g>
</g>
<g>
	<g>
		<path d="M251.937,34.743c-17.067,0-33.321,6.502-45.511,18.692l11.378,11.378c8.94-8.94,21.13-13.816,34.133-13.816
			c13.003,0,25.194,4.876,34.133,13.816l11.378-11.378C285.257,41.244,269.003,34.743,251.937,34.743z"/>
	</g>
</g>
<g>
	<g>
		<path d="M229.181,76.19l11.378,11.378c5.689-5.689,16.254-5.689,22.756,0l11.378-11.378C262.502,64,241.371,64,229.181,76.19z"/>
	</g>
</g>
<g>
</g>
<g>
</g>
<g>
</g>
<g>
</g>
<g>
</g>
<g>
</g>
<g>
</g>
<g>
</g>
<g>
</g>
<g>
</g>
<g>
</g>
<g>
</g>
<g>
</g>
<g>
</g>
<g>
</g>
</svg>
