<?xml version="1.0" encoding="iso-8859-1"?>
<!-- Generator: Adobe Illustrator 19.0.0, SVG Export Plug-In . SVG Version: 6.00 Build 0)  -->
<svg version="1.1" id="Capa_1" xmlns="http://www.w3.org/2000/svg" xmlns:xlink="http://www.w3.org/1999/xlink" x="0px" y="0px"
	 viewBox="0 0 503.873 503.873" style="enable-background:new 0 0 503.873 503.873;" xml:space="preserve">
<g>
	<g>
		<path d="M443.733,162.54c-9.752-34.946-27.632-68.267-52.825-94.273C348.648,24.381,292.571,0,231.619,0
			c-60.14,0-117.841,25.194-158.476,68.267C34.133,108.902,12.19,162.54,12.19,219.429S34.133,329.956,73.143,370.59
			c41.448,43.073,99.149,68.267,158.476,68.267c16.254,0,32.508-1.625,48.762-5.689v70.705h211.302V162.54H443.733z M174.73,24.381
			c-19.505,17.879-36.571,44.698-47.949,77.206c-13.003-8.127-25.194-17.067-36.571-28.444
			C114.591,50.387,143.035,33.321,174.73,24.381z M78.832,85.333c13.003,12.19,26.819,22.756,42.26,31.695
			c-8.127,28.444-13.816,60.14-13.816,93.46H28.482C30.287,164.455,48.13,120.075,78.832,85.333z M28.444,227.556h78.019
			c0.813,34.133,5.689,65.829,13.816,93.46c-15.441,8.94-29.257,19.505-42.26,31.695C47.949,318.578,30.07,273.879,28.444,227.556z
			 M90.21,364.902c11.378-10.565,23.568-20.317,36.571-28.444c12.19,32.508,28.444,59.327,47.949,77.206
			C143.035,405.537,114.591,388.47,90.21,364.902z M223.492,421.79c-34.946-4.876-65.016-40.635-82.895-92.648
			c25.194-13.003,53.638-20.317,82.895-21.13V421.79z M223.492,291.759c-30.883,0.813-60.952,8.94-87.771,21.943
			c-7.314-26.006-11.378-55.263-12.19-86.146h99.962V291.759z M223.492,211.302H123.53c0.813-30.883,4.876-60.14,12.19-86.146
			c27.632,13.003,56.889,21.13,87.771,21.943V211.302z M223.492,130.844c-29.257-0.813-57.702-8.127-82.895-21.13
			c17.879-52.013,47.949-87.771,82.895-92.648V130.844z M426.667,162.54h-74.768c-2.438-15.441-5.689-30.883-9.752-44.698
			c15.441-8.94,29.257-19.505,42.26-31.695C403.911,108.089,418.54,134.095,426.667,162.54z M373.029,73.956
			c-11.378,10.565-22.756,19.505-35.759,27.632c-12.19-33.321-28.444-59.327-47.949-77.206
			C320.203,33.321,349.46,50.387,373.029,73.956z M239.746,17.067c34.133,4.876,65.016,40.635,82.895,92.648
			c-25.194,13.003-53.638,20.318-82.895,21.13V17.067z M280.381,400.66c-13.003,12.19-26.819,19.505-40.635,21.943V308.013
			c13.816,0.813,27.632,2.438,40.635,5.689V400.66z M280.381,296.635c-13.003-3.251-26.819-4.876-40.635-4.876v-64.203h40.635
			V296.635z M280.381,211.302h-40.635v-64.203c30.883-0.813,60.952-8.127,87.771-21.943c3.251,11.378,5.689,24.381,8.127,37.384
			h-55.263V211.302z M475.429,487.619H296.635v-48.762h178.794V487.619z M475.429,422.603H296.635V243.81h178.794V422.603z
			 M475.429,227.556H296.635v-48.762h178.794V227.556z"/>
	</g>
</g>
<g>
	<g>
		<rect x="361.651" y="195.048" width="48.762" height="16.254"/>
	</g>
</g>
<g>
	<g>
		<rect x="377.905" y="455.111" width="16.254" height="16.254"/>
	</g>
</g>
<g>
	<g>
		<path d="M412.038,331.581c8.94-7.314,14.629-18.692,14.629-30.883c0-22.756-17.879-40.635-40.635-40.635
			s-40.635,17.879-40.635,40.635c0,12.19,5.689,23.568,14.629,30.883c-21.943,9.752-37.384,31.695-37.384,57.702h16.254
			c0-26.006,21.13-47.136,47.137-47.136s47.136,21.13,47.136,47.136h16.254C449.422,363.276,433.981,341.333,412.038,331.581z
			 M386.032,325.079c-13.816,0-24.381-10.565-24.381-24.381c0-13.816,10.565-24.381,24.381-24.381
			c13.816,0,24.381,10.565,24.381,24.381C410.413,314.514,399.848,325.079,386.032,325.079z"/>
	</g>
</g>
<g>
</g>
<g>
</g>
<g>
</g>
<g>
</g>
<g>
</g>
<g>
</g>
<g>
</g>
<g>
</g>
<g>
</g>
<g>
</g>
<g>
</g>
<g>
</g>
<g>
</g>
<g>
</g>
<g>
</g>
</svg>
