<?xml version="1.0" encoding="iso-8859-1"?>
<!-- Generator: Adobe Illustrator 19.0.0, SVG Export Plug-In . SVG Version: 6.00 Build 0)  -->
<svg version="1.1" id="Capa_1" xmlns="http://www.w3.org/2000/svg" xmlns:xlink="http://www.w3.org/1999/xlink" x="0px" y="0px"
	 viewBox="0 0 491.52 491.52" style="enable-background:new 0 0 491.52 491.52;" xml:space="preserve">
<circle style="fill:#EFC84A;" cx="245.76" cy="245.76" r="245.76"/>
<path style="opacity:0.1;enable-background:new    ;" d="M383.437,133.417l-0.102-0.102c-1.69-1.536-3.942-2.458-6.4-2.458h-7.834
	l-24.013-24.013l-0.051-0.051c-1.126-1.127-2.714-1.843-4.454-1.843c-3.533,0-6.4,2.867-6.4,6.4v10.752l-16.128-16.128
	c-1.024-0.666-2.202-1.024-3.482-1.024c-3.533,0-6.4,2.867-6.4,6.4v19.507H205.517l-24.064-24.013l-0.051-0.051
	c-1.126-1.127-2.714-1.843-4.454-1.843c-3.533,0-6.4,2.867-6.4,6.4v10.547l-15.104-15.053l-0.051-0.051
	c-1.126-1.127-2.714-1.843-4.454-1.843c-3.533,0-6.4,2.867-6.4,6.4v19.507h-29.952c-5.325,0-9.626,4.3-9.626,9.626v236.442
	c0,3.174,1.485,5.939,3.84,7.629l0.102,0.102l104.703,104.704c10.531,1.377,21.249,2.161,32.155,2.161
	c135.73,0,245.76-110.03,245.76-245.76c0-1.466-0.085-2.911-0.111-4.371L384,133.98L383.437,133.417z"/>
<rect x="104.96" y="178.074" style="fill:#EBF0F3;" width="281.6" height="10.097"/>
<path style="fill:#FFFFFF;" d="M104.96,376.937c0,5.315,4.309,9.623,9.622,9.623h262.355c5.315,0,9.623-4.308,9.623-9.623V188.168
	h-281.6V376.937z"/>
<path style="fill:#E56353;" d="M386.56,140.482c0-5.314-4.307-9.623-9.623-9.623H114.582c-5.314,0-9.622,4.308-9.622,9.623v37.59
	h281.6V140.482z"/>
<g>
	<path style="fill:#64798A;" d="M150.92,104.96c-3.534,0-6.399,2.865-6.399,6.398v39.002c0,3.534,2.865,6.399,6.399,6.399
		c3.534,0,6.399-2.865,6.399-6.399v-39.002C157.319,107.825,154.454,104.96,150.92,104.96z"/>
	<path style="fill:#64798A;" d="M176.954,104.96c-3.533,0-6.398,2.865-6.398,6.398v39.002c0,3.534,2.865,6.399,6.398,6.399
		c3.535,0,6.399-2.865,6.399-6.399v-39.002C183.353,107.825,180.489,104.96,176.954,104.96z"/>
	<path style="fill:#64798A;" d="M314.566,104.96c-3.534,0-6.399,2.865-6.399,6.398v39.002c0,3.534,2.865,6.399,6.399,6.399
		c3.534,0,6.399-2.865,6.399-6.399v-39.002C320.965,107.825,318.1,104.96,314.566,104.96z"/>
	<path style="fill:#64798A;" d="M340.6,104.96c-3.533,0-6.398,2.865-6.398,6.398v39.002c0,3.534,2.865,6.399,6.398,6.399
		c3.535,0,6.399-2.865,6.399-6.399v-39.002C346.999,107.825,344.135,104.96,340.6,104.96z"/>
</g>
<path style="fill:#3EA69B;" d="M245.761,227.899v118.929c32.841,0,59.464-26.623,59.464-59.464
	C305.225,254.522,278.602,227.899,245.761,227.899z"/>
<path style="fill:#44C4A1;" d="M186.295,287.365c0,32.841,26.623,59.464,59.466,59.464V227.899
	C212.918,227.899,186.295,254.522,186.295,287.365z"/>
<path style="fill:#31978C;" d="M232.24,316.385c-0.265,0-0.53-0.015-0.795-0.04c-2.19-0.23-4.17-1.385-5.45-3.17l-15.42-21.54
	c-2.47-3.45-1.675-8.245,1.775-10.715c3.45-2.46,8.245-1.68,10.715,1.775l10.375,14.495l36.075-33.035
	c3.115-2.855,7.985-2.655,10.85,0.48c2.865,3.125,2.65,7.985-0.48,10.85l-42.46,38.885
	C236.005,315.67,234.15,316.385,232.24,316.385z"/>
<path style="fill:#FFFFFF;" d="M232.24,312.586c-0.265,0-0.53-0.015-0.795-0.04c-2.19-0.23-4.17-1.385-5.45-3.17l-15.42-21.54
	c-2.47-3.45-1.675-8.245,1.775-10.715c3.45-2.46,8.245-1.68,10.715,1.775l10.375,14.495l36.075-33.035
	c3.115-2.855,7.985-2.655,10.85,0.48c2.865,3.125,2.65,7.985-0.48,10.85l-42.46,38.885
	C236.005,311.871,234.15,312.586,232.24,312.586z"/>
<g>
</g>
<g>
</g>
<g>
</g>
<g>
</g>
<g>
</g>
<g>
</g>
<g>
</g>
<g>
</g>
<g>
</g>
<g>
</g>
<g>
</g>
<g>
</g>
<g>
</g>
<g>
</g>
<g>
</g>
</svg>
