<?xml version="1.0" encoding="iso-8859-1"?>
<!-- Generator: Adobe Illustrator 19.0.0, SVG Export Plug-In . SVG Version: 6.00 Build 0)  -->
<svg version="1.1" id="Capa_1" xmlns="http://www.w3.org/2000/svg" xmlns:xlink="http://www.w3.org/1999/xlink" x="0px" y="0px"
	 viewBox="0 0 491.52 491.52" style="enable-background:new 0 0 491.52 491.52;" xml:space="preserve">
<circle style="fill:#EA8953;" cx="245.76" cy="245.76" r="245.76"/>
<path style="opacity:0.1;enable-background:new    ;" d="M491.52,245.759c0-2.41-0.113-4.792-0.182-7.186L386.56,133.795
	l-28.826-28.826h-11.571v33.229l-0.717,0.717c-22.784-21.094-53.299-33.946-86.733-33.946c-70.605,0-127.846,57.241-127.846,127.846
	c0,4.812,0.256,9.524,0.819,14.182c-16.384,14.643-26.726,35.942-26.726,59.648c0,20.429,7.68,39.066,20.326,53.248l6.554,6.554
	l124.797,124.796C387.315,485.549,491.52,377.841,491.52,245.759z"/>
<circle style="fill:#E56353;" cx="258.714" cy="232.806" r="127.852"/>
<path style="fill:#FFFFFF;" d="M258.708,337.418c-57.678,0-104.606-46.925-104.606-104.606c0-57.68,46.927-104.606,104.606-104.606
	s104.606,46.925,104.606,104.606C363.314,290.492,316.386,337.418,258.708,337.418z"/>
<path style="fill:#E56353;" d="M258.708,314.172c-44.861,0-81.36-36.498-81.36-81.36c0-44.861,36.499-81.36,81.36-81.36
	c44.861,0,81.36,36.498,81.36,81.36C340.068,277.673,303.569,314.172,258.708,314.172z"/>
<path style="fill:#FFFFFF;" d="M258.708,290.926c-32.045,0-58.115-26.069-58.115-58.115c0-32.045,26.07-58.114,58.115-58.114
	c32.045,0,58.115,26.069,58.115,58.114C316.823,264.857,290.753,290.926,258.708,290.926z"/>
<circle style="fill:#E56353;" cx="258.714" cy="232.806" r="34.867"/>
<circle style="fill:#FCD462;" cx="184.883" cy="306.642" r="79.918"/>
<g>
	<circle style="fill:#DC8744;" cx="184.934" cy="269.558" r="25.518"/>
	<path style="fill:#DC8744;" d="M184.945,369.373c-23.066,0-43.209-12.564-54.088-31.173c9.107-20.848,29.882-35.431,54.088-35.431
		c24.205,0,44.982,14.584,54.089,35.432C228.154,356.81,208.011,369.373,184.945,369.373z"/>
</g>
<polygon style="fill:#3A556A;" points="386.56,145.341 386.56,133.778 357.738,133.778 357.738,104.96 346.176,104.96 
	346.176,138.223 323.214,161.187 323.214,139.486 311.651,139.486 311.651,172.75 252.976,231.429 261.15,239.604 320.882,179.869 
	352.029,179.869 352.029,168.307 332.443,168.307 355.408,145.341 "/>
<g>
</g>
<g>
</g>
<g>
</g>
<g>
</g>
<g>
</g>
<g>
</g>
<g>
</g>
<g>
</g>
<g>
</g>
<g>
</g>
<g>
</g>
<g>
</g>
<g>
</g>
<g>
</g>
<g>
</g>
</svg>
