<svg height="512" viewBox="0 0 128 128" width="512" xmlns="http://www.w3.org/2000/svg"><g id="Circle_Grid" data-name="Circle Grid"><circle cx="64" cy="64" fill="#ea8953" r="64"/></g><g id="icon"><path d="m23 41.107v57.915a3.525 3.525 0 0 0 3.526 3.525h74.948a3.525 3.525 0 0 0 3.526-3.525v-57.915z" fill="#eeefee"/><path d="m101.474 25.453h-74.948a3.525 3.525 0 0 0 -3.526 3.525v13.8h82v-13.8a3.525 3.525 0 0 0 -3.526-3.525z" fill="#575b6d"/><circle cx="72.981" cy="34.113" fill="#2cbfae" r="3.174"/><circle cx="84.205" cy="34.113" fill="#f6c863" r="3.174"/><circle cx="95.428" cy="34.113" fill="#ef5261" r="3.174"/><path d="m78.022 60.353a13.92 13.92 0 0 1 -2.5 7.986c-.156.226-.312.443-.477.651a14.026 14.026 0 0 1 -22.1 0c-.165-.208-.321-.425-.477-.651a14.022 14.022 0 1 1 25.547-7.986z" fill="#dbd8dd"/><circle cx="64" cy="56.142" fill="#575b6d" r="5.331"/><path d="m75.048 68.99a14.026 14.026 0 0 1 -22.1 0 12.57 12.57 0 0 1 22.1 0z" fill="#575b6d"/><g fill="#dbd8dd"><path d="m33.5 78h63.5v2.625h-63.5z"/><path d="m33.5 85.813h63.5v2.625h-63.5z"/><path d="m33.5 93.625h32.25v2.625h-32.25z"/></g></g></svg>