<?xml version="1.0" encoding="iso-8859-1"?>
<!-- Generator: Adobe Illustrator 19.0.0, SVG Export Plug-In . SVG Version: 6.00 Build 0)  -->
<svg version="1.1" id="Capa_1" xmlns="http://www.w3.org/2000/svg" xmlns:xlink="http://www.w3.org/1999/xlink" x="0px" y="0px"
	 viewBox="0 0 409.6 409.6" style="enable-background:new 0 0 409.6 409.6;" xml:space="preserve">
<circle style="fill:#45B39C;" cx="204.8" cy="204.8" r="204.8"/>
<path style="opacity:0.1;enable-background:new    ;" d="M407.347,235.151l-85.214-85.214h-13.482l-23.595-23.595H87.466v133.333
	l147.673,147.673C323.951,394.158,394.151,323.962,407.347,235.151z"/>
<rect x="135.34" y="149.93" style="fill:#2F4859;" width="186.79" height="133.29"/>
<rect x="87.47" y="126.36" style="fill:#64798A;" width="197.59" height="133.29"/>
<rect x="87.47" y="191.44" style="fill:#3A556A;" width="197.59" height="68.22"/>
<path style="fill:#D5D6DB;" d="M264.587,237.232c4.153,0,7.307-3.821,6.443-7.883c-3.625-17.054-18.771-29.847-36.906-29.847
	s-33.281,12.794-36.906,29.847c-0.864,4.063,2.29,7.883,6.443,7.883H264.587z"/>
<g>
	<path style="fill:#EBF0F3;" d="M197.219,229.349c3.625-17.054,18.771-29.847,36.906-29.847v37.731h-30.463
		C199.509,237.232,196.355,233.412,197.219,229.349z"/>
	<path style="fill:#EBF0F3;" d="M252.173,177.882c0,9.968-8.081,22.292-18.049,22.292s-18.049-12.324-18.049-22.292
		c0-9.968,8.081-18.049,18.049-18.049C244.092,159.833,252.173,167.914,252.173,177.882z"/>
</g>
<path style="fill:#D5D6DB;" d="M234.124,200.174c9.968,0,18.049-12.324,18.049-22.292s-8.081-18.049-18.049-18.049V200.174z"/>
<rect x="87.47" y="126.36" style="fill:#FCD462;" width="197.59" height="25.813"/>
<g>
	<rect x="98.22" y="167" style="fill:#DC8744;" width="93.4" height="13.01"/>
	<rect x="98.23" y="188.54" style="fill:#DC8744;" width="77.68" height="13.01"/>
	<rect x="98.22" y="210.09" style="fill:#DC8744;" width="53.884" height="13.01"/>
</g>
<rect x="240.13" y="133.08" style="fill:#E56353;" width="31.04" height="12.574"/>
<g>
	<rect x="201.51" y="133.08" style="fill:#D15241;" width="31.04" height="12.574"/>
	<rect x="162.9" y="133.08" style="fill:#D15241;" width="31.04" height="12.574"/>
</g>
<g>
</g>
<g>
</g>
<g>
</g>
<g>
</g>
<g>
</g>
<g>
</g>
<g>
</g>
<g>
</g>
<g>
</g>
<g>
</g>
<g>
</g>
<g>
</g>
<g>
</g>
<g>
</g>
<g>
</g>
</svg>
