<svg id="Layer_1" enable-background="new 0 0 512 512" height="512" viewBox="0 0 512 512" width="512" xmlns="http://www.w3.org/2000/svg"><g><g><g><g id="XMLID_737_"><g id="XMLID_738_"><g id="XMLID_739_"><g id="XMLID_740_"><g id="XMLID_741_"><g id="XMLID_742_"><g id="XMLID_743_"><g id="XMLID_744_"><g id="XMLID_745_"><g id="XMLID_746_"><g id="XMLID_747_"><g id="XMLID_748_"><g id="XMLID_764_"><g id="XMLID_765_"><g id="XMLID_766_"><circle cx="256" cy="256" fill="#f9764e" r="256"/></g></g></g></g></g></g></g></g></g></g></g></g></g></g></g></g></g><path d="m209.885 507.849c14.96 2.721 30.37 4.151 46.115 4.151 141.385 0 256-114.615 256-256 0-44.555-11.391-86.445-31.406-122.934l-38.094-38.094-372.999 272.492z" fill="#e84d2a"/><g><g><path d="m69.501 94.972h372.999v272.492h-372.999z" fill="#fcd144"/><path d="m256 94.975h186.496v272.485h-186.496z" fill="#f4b911"/><path d="m69.501 367.464 186.499-164.205 186.5 164.205z" fill="#f4b911"/><path d="m442.496 367.46h-186.496v-164.204l40.054 35.265z" fill="#e2a100"/><path d="m69.501 94.972 186.499 182.822 186.5-182.822z" fill="#ffe4a9"/><g><path d="m442.496 94.975-146.442 143.546-40.054 39.273v-182.819z" fill="#ffd788"/></g></g><g><path d="m322.004 318.691h-30v-56.785c0-19.852-16.151-36.003-36.004-36.003s-36.004 16.151-36.004 36.003v56.785h-30v-56.785c0-36.394 29.609-66.003 66.004-66.003s66.004 29.609 66.004 66.003z" fill="#655665"/></g><g><path d="m322 261.91v56.78h-30v-56.78c0-19.86-16.15-36.01-36-36.01v-30c36.39 0 66 29.61 66 66.01z" fill="#4b3b4c"/></g><g><path d="m162.751 309.881h186.498v142.672h-186.498z" fill="#f7f4f0"/></g><g><g><path d="m256 309.88h93.25v142.67h-93.25z" fill="#e5e1dc"/></g></g><g><path d="m280.508 366.277c0-13.535-10.973-24.508-24.508-24.508s-24.508 10.973-24.508 24.508c0 7.698 3.552 14.563 9.103 19.056v35.333h30.81v-35.333c5.551-4.493 9.103-11.359 9.103-19.056z" fill="#655665"/></g><g><path d="m280.51 366.28c0 7.69-3.55 14.56-9.1 19.05v35.34h-15.41v-78.9c13.54 0 24.51 10.97 24.51 24.51z" fill="#4b3b4c"/></g></g></g></svg>