<?xml version="1.0" encoding="iso-8859-1"?>
<!-- Generator: Adobe Illustrator 19.0.0, SVG Export Plug-In . SVG Version: 6.00 Build 0)  -->
<svg version="1.1" id="Capa_1" xmlns="http://www.w3.org/2000/svg" xmlns:xlink="http://www.w3.org/1999/xlink" x="0px" y="0px"
	 viewBox="0 0 491.52 491.52" style="enable-background:new 0 0 491.52 491.52;" xml:space="preserve">
<circle style="fill:#45B39C;" cx="245.76" cy="245.76" r="245.76"/>
<path style="opacity:0.1;enable-background:new    ;" d="M265.984,107.49h0.256c-0.973-0.256-1.997-0.461-3.021-0.666
	c-0.307-0.102-0.666-0.154-0.973-0.205c-1.28-0.256-2.56-0.512-3.84-0.666c-1.126-0.205-2.304-0.358-3.482-0.461
	c-0.87-0.102-1.741-0.205-2.662-0.256c-3.84-0.307-7.782-0.358-11.776-0.102c-41.984,2.611-75.827,37.274-77.466,79.309
	c-0.819,19.558,5.222,37.734,15.923,52.275c19.302,26.317,30.72,57.549,30.72,90.163v12.083l-2.099,0.256
	c-1.792,0.307-3.021,2.048-2.714,3.891c0.154,0.819,0.614,1.536,1.229,2.048l3.584,3.584v10.189l-2.099,0.256
	c-1.792,0.358-3.021,2.099-2.714,3.891c0.205,0.973,0.768,1.792,1.536,2.253l0.102,0.051l5.069,5.12l6.195,8.243l101.563,101.563
	c80.168-25.117,142.639-90.199,164.118-171.908l-176.85-176.849C295.834,119.931,281.805,111.432,265.984,107.49z"/>
<path style="fill:#2F4859;" d="M264.41,378.268c0,4.579-8.393,8.292-18.747,8.292c-10.353,0-18.746-3.712-18.746-8.292"/>
<path id="SVGCleanerId_0" style="fill:#FCD462;" d="M240.466,105.125c-41.966,2.61-75.805,37.285-77.469,79.299
	c-0.776,19.603,5.264,37.769,15.943,52.318c19.302,26.3,30.749,57.528,30.749,90.151v4.512h72.142v-3.927
	c0-32.014,9.709-63.624,29.359-88.897c10.905-14.026,17.399-31.65,17.399-50.792C328.589,140.291,288.609,102.131,240.466,105.125z"
	/>
<g>
	<path id="SVGCleanerId_0_1_" style="fill:#FCD462;" d="M240.466,105.125c-41.966,2.61-75.805,37.285-77.469,79.299
		c-0.776,19.603,5.264,37.769,15.943,52.318c19.302,26.3,30.749,57.528,30.749,90.151v4.512h72.142v-3.927
		c0-32.014,9.709-63.624,29.359-88.897c10.905-14.026,17.399-31.65,17.399-50.792C328.589,140.291,288.609,102.131,240.466,105.125z
		"/>
</g>
<path style="fill:#F6C358;" d="M224.445,331.405v-2.182c0-32.624-11.446-63.852-30.749-90.151
	c-10.678-14.549-16.719-32.714-15.942-52.318c1.663-42.013,35.503-76.689,77.468-79.299c3.721-0.231,7.385-0.189,10.994,0.057
	c-8.167-2.075-16.817-2.942-25.75-2.387c-41.966,2.61-75.805,37.285-77.469,79.299c-0.776,19.603,5.264,37.769,15.943,52.318
	c19.302,26.3,30.749,57.528,30.749,90.151v4.512H224.445z"/>
<rect x="209.69" y="331.407" style="fill:#64798A;" width="72.192" height="36.547"/>
<g>
	<polygon style="fill:#3A556A;" points="209.689,367.949 217.734,378.765 273.836,378.765 281.881,367.949 	"/>
	<path style="fill:#3A556A;" d="M282.817,329.746l-75.235,9.477c-1.824,0.323-3.041,2.064-2.718,3.889
		c0.323,1.824,2.064,3.041,3.889,2.718l75.234-9.477c1.824-0.323,3.041-2.064,2.718-3.889
		C286.382,330.639,284.641,329.422,282.817,329.746z"/>
	<path style="fill:#3A556A;" d="M282.817,349.729l-75.235,9.477c-1.824,0.323-3.041,2.064-2.718,3.889
		c0.323,1.824,2.064,3.041,3.889,2.718l75.234-9.477c1.824-0.323,3.041-2.064,2.718-3.889
		C286.382,350.623,284.641,349.406,282.817,349.729z"/>
</g>
<g>
</g>
<g>
</g>
<g>
</g>
<g>
</g>
<g>
</g>
<g>
</g>
<g>
</g>
<g>
</g>
<g>
</g>
<g>
</g>
<g>
</g>
<g>
</g>
<g>
</g>
<g>
</g>
<g>
</g>
</svg>
