<?xml version="1.0" encoding="iso-8859-1"?>
<!-- Generator: Adobe Illustrator 19.0.0, SVG Export Plug-In . SVG Version: 6.00 Build 0)  -->
<svg version="1.1" id="Capa_1" xmlns="http://www.w3.org/2000/svg" xmlns:xlink="http://www.w3.org/1999/xlink" x="0px" y="0px"
	 viewBox="0 0 491.52 491.52" style="enable-background:new 0 0 491.52 491.52;" xml:space="preserve">
<circle style="fill:#E05B49;" cx="245.76" cy="245.76" r="245.76"/>
<path style="opacity:0.1;enable-background:new    ;" d="M329.779,146.176l-30.822-30.771l-30.106,12.647L245.76,104.96
	l-23.603,23.603l-30.976-12.595l-12.339,30.208h-32.666v33.433l-30.771,12.954l12.647,30.106L104.96,245.76l23.603,23.603
	l-12.595,30.976l30.208,30.208v14.797l142.385,142.385c101.406-17.82,181.348-97.762,199.168-199.168L345.344,146.176H329.779z"/>
<polygon style="fill:#FCD462;" points="363.464,268.856 386.56,245.76 362.936,222.136 375.561,191.204 345.321,178.861 
	345.321,146.199 311.911,146.199 298.966,115.4 268.856,128.055 245.76,104.96 222.136,128.584 191.204,115.959 178.862,146.199 
	146.199,146.199 146.199,179.609 115.4,192.554 128.056,222.664 104.96,245.76 128.584,269.384 115.959,300.316 146.199,312.659 
	146.199,345.321 179.609,345.321 192.554,376.12 222.664,363.465 245.76,386.56 269.384,362.936 300.316,375.561 312.658,345.321 
	345.321,345.321 345.321,311.911 376.12,298.966 "/>
<circle style="fill:#F6C358;" cx="245.76" cy="245.76" r="92.83"/>
<g>
	<path style="fill:#DC8744;" d="M183.319,278.669V223.09h10.647l14.472,38.869l-0.289-38.869h9.78v55.579h-10.574l-14.58-38.941
		l0.289,38.941H183.319z"/>
	<path style="fill:#DC8744;" d="M227.385,278.669V223.09h28.547v9.239H237.67v12.848h16.998v8.806H237.67v15.302h18.695v9.383
		h-28.98V278.669z"/>
	<path style="fill:#DC8744;" d="M271.379,278.669l-10.791-55.579h10.719l6.785,42.117l7.254-42.117h8.589l7.976,42.947l5.919-42.947
		h10.611l-10.105,55.579h-12.271l-6.424-35.116l-5.919,35.116H271.379z"/>
</g>
<g>
	<path style="fill:#FFFFFF;" d="M178.199,273.549V217.97h10.647l14.472,38.869l-0.289-38.869h9.78v55.579h-10.574l-14.58-38.941
		l0.289,38.941H178.199z"/>
	<path style="fill:#FFFFFF;" d="M222.265,273.549V217.97h28.547v9.239H232.55v12.848h16.999v8.806H232.55v15.302h18.695v9.383
		h-28.98V273.549z"/>
	<path style="fill:#FFFFFF;" d="M266.259,273.549l-10.791-55.579h10.719l6.785,42.117l7.254-42.117h8.589l7.976,42.947l5.919-42.947
		h10.611l-10.105,55.579h-12.271l-6.424-35.116l-5.919,35.116H266.259z"/>
</g>
<g>
</g>
<g>
</g>
<g>
</g>
<g>
</g>
<g>
</g>
<g>
</g>
<g>
</g>
<g>
</g>
<g>
</g>
<g>
</g>
<g>
</g>
<g>
</g>
<g>
</g>
<g>
</g>
<g>
</g>
</svg>
