<?xml version="1.0" encoding="iso-8859-1"?>
<!-- Generator: Adobe Illustrator 19.0.0, SVG Export Plug-In . SVG Version: 6.00 Build 0)  -->
<svg version="1.1" id="Capa_1" xmlns="http://www.w3.org/2000/svg" xmlns:xlink="http://www.w3.org/1999/xlink" x="0px" y="0px"
	 viewBox="0 0 491.52 491.52" style="enable-background:new 0 0 491.52 491.52;" xml:space="preserve">
<circle style="fill:#334D5C;" cx="245.76" cy="245.76" r="245.76"/>
<path style="opacity:0.1;enable-background:new    ;" d="M323.482,141.015c-18.688-22.067-46.541-36.045-77.722-36.045
	c-56.269,0-101.888,45.619-101.888,101.837c0,28.467,11.674,54.221,30.515,72.653l66.867,66.867l-3.533,7.066l-17.92,2.611
	l12.902,12.902l-0.768,4.71l-17.613-17.613l-8.346-1.229l-17.613-17.613l-8.038,16.23l-17.971,2.611l13.005,12.698l-0.819,4.915
	l-17.613-17.613l-8.397-1.229l-17.613-17.613l-7.987,16.23l-17.971,2.611l13.005,12.698l-3.072,17.869l103.382,103.382
	c9.028,1.006,18.189,1.568,27.485,1.568c116.251,0,213.58-80.741,239.141-189.187L323.533,140.963L323.482,141.015z"/>
<circle style="fill:#E56353;" cx="245.76" cy="206.848" r="101.868"/>
<g>
	<circle style="fill:#CE412D;" cx="245.862" cy="159.539" r="32.527"/>
	<path style="fill:#CE412D;" d="M245.844,286.791c-29.401,0-55.077-16.015-68.943-39.735c11.609-26.573,38.09-45.163,68.942-45.163
		s57.336,18.59,68.944,45.164C300.92,270.776,275.244,286.791,245.844,286.791z"/>
</g>
<g>
	<polygon style="fill:#FCD462;" points="130.939,337.144 138.968,353.411 156.919,356.019 143.929,368.681 146.996,386.56 
		130.939,378.119 114.883,386.56 117.95,368.681 104.96,356.019 122.911,353.411 	"/>
	<polygon style="fill:#FCD462;" points="188.35,337.144 196.378,353.411 214.329,356.019 201.339,368.681 204.406,386.56 
		188.35,378.119 172.294,386.56 175.36,368.681 162.37,356.019 180.322,353.411 	"/>
	<polygon style="fill:#FCD462;" points="245.76,337.144 253.788,353.411 271.739,356.019 258.75,368.681 261.816,386.56 
		245.76,378.119 229.704,386.56 232.77,368.681 219.781,356.019 237.732,353.411 	"/>
</g>
<polygon style="fill:#F6C358;" points="303.17,337.144 311.198,353.411 329.15,356.019 316.16,368.681 319.226,386.56 
	303.17,378.119 287.114,386.56 290.181,368.681 277.191,356.019 295.142,353.411 "/>
<polygon style="fill:#D5D6DB;" points="360.581,337.144 368.609,353.411 386.56,356.019 373.57,368.681 376.637,386.56 
	360.581,378.119 344.524,386.56 347.591,368.681 334.601,356.019 352.552,353.411 "/>
<g>
</g>
<g>
</g>
<g>
</g>
<g>
</g>
<g>
</g>
<g>
</g>
<g>
</g>
<g>
</g>
<g>
</g>
<g>
</g>
<g>
</g>
<g>
</g>
<g>
</g>
<g>
</g>
<g>
</g>
</svg>
